<?xml version="1.0" standalone="no"?>
<!DOCTYPE svg PUBLIC "-//W3C//DTD SVG 20010904//EN"
 "http://www.w3.org/TR/2001/REC-SVG-20010904/DTD/svg10.dtd">
<svg version="1.0" xmlns="http://www.w3.org/2000/svg"
 width="624.000000pt" height="824.000000pt" viewBox="0 0 624.000000 824.000000"
 preserveAspectRatio="xMidYMid meet">

<g transform="translate(0.000000,824.000000) scale(0.100000,-0.100000)"
fill="#000000" stroke="none">
<path d="M0 4298 l0 -3943 33 -19 c34 -20 23 -35 -12 -16 -18 9 -21 8 -21 -10
0 -11 7 -20 14 -20 8 0 27 -11 42 -25 21 -19 25 -28 16 -37 -8 -8 -15 -8 -24
-1 -28 21 -48 23 -48 4 0 -12 13 -24 38 -34 21 -8 45 -23 52 -33 14 -15 13
-16 -10 -9 -14 4 -34 14 -45 21 -11 8 -23 14 -27 14 -5 0 -8 -43 -8 -95 l0
-95 105 0 c89 0 104 2 99 15 -8 19 1 19 31 -1 14 -9 39 -14 61 -12 l38 3 -64
31 c-64 31 -119 78 -107 90 7 7 75 -24 122 -56 17 -11 36 -20 43 -20 7 0 30
-11 52 -25 l40 -25 1038 0 1039 0 0 68 c0 38 5 77 12 88 10 15 11 3 9 -66 -3
-81 -2 -85 19 -88 17 -3 22 3 26 25 l4 28 2 -27 1 -28 821 0 821 0 -6 26 c-8
29 1 64 15 64 5 0 9 -20 9 -45 0 -38 3 -45 19 -45 14 0 21 8 24 28 l4 27 2
-27 1 -28 690 0 c619 0 693 2 715 16 23 15 25 15 25 0 0 -13 11 -16 54 -16
l54 0 -6 45 c-3 30 -1 45 7 45 6 0 11 -10 11 -22 0 -13 3 -33 6 -45 6 -23 7
-23 205 -23 l199 0 0 4120 0 4120 -3120 0 -3120 0 0 -3942z m2945 482 c3 -5 1
-10 -4 -10 -6 0 -11 5 -11 10 0 6 2 10 4 10 3 0 8 -4 11 -10z m-241 -11 c14
-7 23 -16 19 -22 -3 -6 11 -8 36 -5 28 2 40 0 37 -8 -5 -13 42 -7 61 8 7 6 25
6 45 0 49 -13 98 -4 90 17 -5 13 -3 14 10 3 8 -7 24 -10 34 -6 18 5 18 5 2 -6
-19 -12 -25 -40 -8 -40 6 0 10 4 10 9 0 5 12 11 26 14 17 3 24 1 20 -8 -3 -9
12 -11 56 -9 49 3 59 1 55 -11 -5 -11 -1 -12 19 -4 14 5 30 6 36 3 6 -4 14 0
19 7 7 12 12 12 31 0 16 -10 23 -10 26 -2 5 16 23 14 37 -6 10 -13 16 -14 26
-7 21 16 55 23 70 13 12 -7 12 -12 1 -29 -7 -11 -10 -25 -7 -29 8 -14 -38 -22
-48 -8 -7 9 -10 9 -14 0 -6 -16 -49 -17 -58 -3 -4 6 -15 8 -26 5 -11 -4 -19
-2 -19 5 0 7 -6 5 -15 -4 -12 -12 -38 -15 -130 -13 -73 2 -119 7 -127 15 -7 7
-26 12 -43 12 -17 0 -36 5 -42 11 -6 6 -28 11 -49 12 -22 0 -44 4 -50 9 -7 5
-16 2 -24 -7 -7 -8 -9 -15 -4 -16 51 -4 89 -12 94 -19 5 -8 16 -9 93 -10 15
-1 27 -5 27 -9 0 -12 113 -31 139 -24 12 3 27 0 35 -6 11 -9 19 -9 34 0 11 7
27 9 38 4 18 -7 17 -8 -4 -14 -13 -3 -24 -10 -24 -16 -1 -14 62 -44 93 -45 15
0 29 -6 32 -13 4 -11 -7 -12 -49 -9 -45 4 -54 2 -54 -12 0 -9 -8 -16 -19 -16
-11 0 -23 -5 -26 -11 -4 -6 -13 -8 -20 -5 -7 2 -21 -4 -31 -15 -23 -25 -1 -25
34 0 26 18 93 23 108 9 3 -4 16 -3 29 2 17 7 25 5 29 -6 4 -10 -2 -14 -20 -14
-20 0 -25 -4 -22 -22 2 -16 14 -25 43 -34 22 -6 58 -23 79 -38 21 -14 48 -26
60 -26 21 -1 21 -1 1 -12 -11 -7 -34 -11 -51 -10 -25 2 -33 -2 -38 -20 l-7
-23 -16 23 c-20 28 -33 28 -25 0 5 -21 4 -21 -19 -5 -13 10 -41 17 -64 16 -34
0 -37 -2 -17 -9 34 -14 26 -19 -15 -9 -51 12 -53 11 -46 -7 3 -9 0 -20 -7 -24
-11 -7 -11 -11 -1 -24 11 -14 11 -16 -3 -16 -9 0 -29 6 -45 14 -15 8 -33 11
-40 6 -15 -9 -6 -30 12 -30 7 0 20 -18 30 -40 21 -50 21 -53 -3 -45 -20 6 -28
-9 -11 -19 5 -3 11 -17 14 -32 4 -21 -1 -29 -26 -44 -16 -10 -35 -16 -42 -13
-24 9 -35 70 -20 113 5 14 8 33 6 43 -3 21 7 22 31 0 10 -9 20 -14 23 -11 11
11 -8 37 -36 48 -16 7 -29 16 -29 21 0 5 -8 9 -17 9 -10 0 -30 6 -45 14 -24
13 -27 12 -30 -1 -2 -13 -9 -11 -34 11 -37 30 -59 33 -68 9 -5 -13 -9 -14 -19
-4 -9 9 -9 14 2 20 9 6 0 11 -29 16 -30 5 -45 3 -50 -5 -5 -8 -13 -9 -21 -4
-8 4 -32 9 -54 10 -22 1 -47 3 -55 4 -8 1 -23 -1 -32 -5 -17 -7 -17 -5 -3 21
12 25 13 30 1 34 -12 4 -12 8 1 25 11 14 17 16 20 8 7 -18 23 -16 23 2 0 8 5
15 11 15 7 0 9 -10 7 -25 -7 -33 5 -32 30 2 17 23 22 25 36 14 9 -7 13 -17 10
-22 -3 -5 4 -9 15 -9 28 0 35 17 12 30 -12 6 -18 16 -15 25 7 17 -16 21 -32 5
-11 -11 -54 -2 -54 12 0 5 10 6 21 3 16 -5 20 -3 17 6 -3 8 7 24 21 37 22 19
33 22 71 17 75 -10 100 -16 100 -26 0 -5 5 -9 10 -9 6 0 10 6 10 14 0 17 -58
49 -72 40 -14 -9 -69 17 -62 28 4 6 -4 8 -22 4 -23 -5 -38 0 -72 25 -46 34
-49 41 -27 59 8 7 15 18 15 25 0 17 27 23 68 14 37 -8 53 6 20 17 -13 4 -27 8
-33 9 -5 1 -23 7 -39 13 l-29 12 22 19 c26 23 27 35 1 28 -13 -3 -20 0 -20 9
0 17 2 17 34 3z m86 1 c0 -5 -4 -10 -10 -10 -5 0 -10 5 -10 10 0 6 5 10 10 10
6 0 10 -4 10 -10z m340 -30 c0 -5 -4 -10 -10 -10 -5 0 -10 5 -10 10 0 6 5 10
10 10 6 0 10 -4 10 -10z m295 -10 c-11 -5 -29 -9 -40 -9 l-20 0 20 9 c11 5 29
9 40 9 l20 0 -20 -9z m-75 -166 c0 -9 -11 -14 -30 -14 -16 0 -30 5 -30 11 0 6
7 8 15 5 9 -3 18 1 21 9 7 18 24 10 24 -11z m-710 -4 c0 -5 -2 -10 -4 -10 -3
0 -8 5 -11 10 -3 6 -1 10 4 10 6 0 11 -4 11 -10z m760 -5 c0 -8 -4 -15 -10
-15 -5 0 -10 7 -10 15 0 8 5 15 10 15 6 0 10 -7 10 -15z m-3 -57 c-3 -8 -6 -5
-6 6 -1 11 2 17 5 13 3 -3 4 -12 1 -19z m43 2 c0 -5 -2 -10 -4 -10 -3 0 -8 5
-11 10 -3 6 -1 10 4 10 6 0 11 -4 11 -10z m85 0 c3 -6 -1 -7 -9 -4 -18 7 -21
14 -7 14 6 0 13 -4 16 -10z m-915 -59 c0 -5 -9 -11 -20 -14 -13 -3 -20 0 -20
9 0 8 9 14 20 14 11 0 20 -4 20 -9z m-25 -71 c3 -5 1 -10 -4 -10 -6 0 -11 5
-11 10 0 6 2 10 4 10 3 0 8 -4 11 -10z m935 6 c0 -2 3 -11 6 -19 7 -18 -24
-31 -42 -16 -17 14 -7 39 17 39 10 0 19 -2 19 -4z m50 -71 c0 -8 -4 -15 -9
-15 -13 0 -22 16 -14 24 11 11 23 6 23 -9z m-364 -118 c6 2 14 -3 18 -12 5
-13 1 -15 -17 -10 -12 4 -29 14 -37 22 -13 14 -13 14 5 6 11 -6 25 -8 31 -6z
m-591 -217 c3 -5 1 -10 -4 -10 -6 0 -11 5 -11 10 0 6 2 10 4 10 3 0 8 -4 11
-10z m-95 -15 c0 -8 15 -31 33 -51 l32 -37 -35 6 c-19 4 -45 19 -58 33 -22 25
-22 27 -6 45 20 23 34 24 34 4z m150 5 c0 -5 -2 -10 -4 -10 -3 0 -8 5 -11 10
-3 6 -1 10 4 10 6 0 11 -4 11 -10z m106 -17 c18 -16 34 -37 34 -48 0 -18 -7
-20 -71 -22 l-71 -2 26 24 c15 14 26 35 26 50 0 32 13 32 56 -2z m740 -70 c26
-19 14 -23 -45 -16 -47 5 -81 23 -81 41 0 4 19 19 42 33 l43 25 12 -35 c7 -20
20 -41 29 -48z m29 77 c3 -5 1 -10 -4 -10 -6 0 -11 5 -11 10 0 6 2 10 4 10 3
0 8 -4 11 -10z m183 -23 c16 -19 -11 -51 -55 -65 -33 -11 -49 2 -18 14 8 4 18
24 21 45 5 32 9 37 24 29 9 -5 22 -15 28 -23z m-118 13 c0 -5 -4 -10 -10 -10
-5 0 -10 5 -10 10 0 6 5 10 10 10 6 0 10 -4 10 -10z m-223 -126 c-3 -3 -12 -4
-19 -1 -8 3 -5 6 6 6 11 1 17 -2 13 -5z m-622 -74 c3 -5 -5 -25 -18 -42 -36
-49 -40 -68 -15 -68 17 0 18 -2 8 -15 -10 -12 -9 -15 4 -15 16 0 16 -1 2 -16
-9 -8 -16 -20 -16 -26 0 -19 -31 -47 -46 -41 -10 4 -14 -3 -14 -21 0 -17 5
-26 15 -26 13 0 13 -3 3 -21 -11 -17 -10 -22 5 -34 12 -8 14 -15 7 -20 -5 -3
-8 -10 -5 -15 3 -4 -6 -11 -20 -14 -16 -4 -25 -13 -25 -26 0 -11 -3 -19 -7
-19 -24 4 -34 -3 -29 -19 5 -14 1 -18 -17 -17 -32 0 -61 25 -47 39 5 5 10 20
10 33 0 13 5 23 11 23 5 0 7 -4 4 -10 -3 -5 -2 -10 4 -10 14 0 19 22 10 48 -6
16 -5 22 6 22 8 0 20 10 26 22 8 14 14 18 17 10 2 -6 8 -9 13 -6 6 4 6 10 1
17 -6 7 -12 21 -15 32 -4 15 -5 13 -6 -7 0 -16 -6 -28 -12 -28 -6 0 -8 8 -4
19 4 15 -1 24 -22 34 -25 13 -30 13 -43 -1 -8 -9 -15 -23 -15 -31 0 -8 -9 -19
-20 -25 -30 -16 -36 -28 -29 -58 4 -21 2 -28 -10 -28 -8 0 -18 9 -21 20 -3 11
-10 20 -15 20 -4 0 -11 11 -14 25 -4 14 -10 25 -15 25 -5 0 -14 13 -21 29 -10
25 -9 34 4 53 22 31 20 47 -4 41 -11 -3 -27 0 -34 6 -13 11 -11 16 7 34 12 12
25 21 30 20 4 -2 7 0 8 5 0 4 2 18 3 30 2 13 9 28 17 33 19 12 127 11 131 -1
2 -6 25 -6 66 1 48 9 70 9 89 0 21 -10 24 -9 20 3 -8 20 26 35 38 16z m310
-27 c12 -16 14 -16 29 0 23 23 28 21 22 -5 -3 -13 -3 -17 0 -10 8 17 34 15 34
-3 0 -7 -8 -18 -17 -24 -13 -7 -14 -12 -6 -23 18 -22 -5 -135 -27 -130 -7 2
-16 -2 -20 -8 -8 -13 -60 4 -60 20 0 5 3 9 8 9 20 -3 21 3 2 23 -26 28 -26 48
0 48 11 0 20 5 20 11 0 7 8 17 17 24 16 12 14 15 -14 32 -25 15 -29 22 -22 36
12 21 19 21 34 0z m451 -14 c14 -13 27 -18 36 -13 42 26 158 5 172 -32 3 -8
10 -12 16 -9 5 3 10 1 10 -5 0 -6 4 -9 9 -6 4 3 16 -1 26 -8 14 -10 19 -31 23
-92 2 -43 1 -76 -3 -71 -5 4 -16 0 -26 -9 -10 -9 -25 -14 -33 -11 -10 4 -13 1
-9 -9 10 -26 -12 -14 -29 16 -9 17 -22 30 -28 30 -14 0 -13 -17 3 -23 9 -3 8
-9 -5 -22 -16 -17 -17 -17 -24 8 -6 28 -19 33 -42 19 -7 -5 -10 -16 -6 -27 5
-13 3 -16 -7 -13 -8 3 -13 13 -11 22 2 10 -3 25 -10 33 -7 9 -13 21 -14 27 0
6 -2 17 -2 24 -1 6 -7 12 -14 12 -9 0 -9 -3 -1 -11 9 -9 9 -16 0 -31 -10 -15
-9 -20 2 -27 8 -5 11 -16 7 -27 -6 -16 -7 -16 -21 2 -14 18 -14 17 -15 -11 0
-20 -3 -26 -10 -19 -7 7 -5 23 6 49 15 37 15 40 -3 53 -10 7 -17 18 -15 24 2
6 -3 15 -10 19 -10 7 -9 9 5 9 22 0 24 48 2 56 -8 4 -15 11 -15 16 0 6 -12 22
-27 36 -20 19 -24 27 -14 30 8 3 20 -3 26 -12 7 -9 16 -16 21 -16 4 0 3 5 -4
12 -32 32 1 38 34 7z m-471 -59 c-6 -9 -9 -9 -16 1 -10 17 0 34 13 21 6 -6 7
-16 3 -22z m-485 -156 c0 -8 -5 -12 -10 -9 -6 4 -8 11 -5 16 9 14 15 11 15 -7z
m940 -4 c0 -5 -4 -10 -10 -10 -5 0 -10 5 -10 10 0 6 5 10 10 10 6 0 10 -4 10
-10z m-420 -18 c0 -4 -5 -13 -11 -19 -7 -7 -6 -12 5 -16 8 -3 18 -2 21 3 8 13
68 -1 82 -19 6 -8 11 -30 11 -49 0 -26 -5 -35 -24 -42 -13 -5 -24 -16 -24 -25
0 -13 -14 -20 -23 -12 -2 1 -15 -6 -30 -16 -18 -11 -36 -16 -49 -11 -22 7 -88
70 -81 78 2 2 -2 16 -9 30 -9 22 -9 29 1 35 7 5 11 12 9 17 -1 5 14 10 34 12
26 2 35 7 32 17 -5 12 1 15 49 24 4 0 7 -3 7 -7z m410 -52 c0 -5 -4 -10 -10
-10 -5 0 -10 5 -10 10 0 6 5 10 10 10 6 0 10 -4 10 -10z m214 -22 c-1 -13 -3
-25 -3 -28 -2 -7 -31 32 -31 42 0 4 8 8 18 8 13 0 18 -6 16 -22z m-161 5 c4
-3 -2 -12 -13 -20 -23 -16 -27 -35 -5 -27 9 4 18 -1 21 -11 5 -11 14 -15 29
-11 27 7 35 -8 28 -47 -3 -15 0 -33 6 -41 9 -11 6 -13 -17 -13 -16 1 -29 7
-29 13 0 7 5 10 12 8 6 -3 11 6 10 22 0 15 -6 29 -12 32 -7 2 -13 -1 -13 -8 0
-6 -15 6 -32 27 -18 21 -37 41 -42 44 -5 4 1 10 13 14 11 3 21 11 21 16 0 10
14 12 23 2z m57 -12 c0 -5 -9 -11 -20 -14 -20 -5 -26 3 -13 16 9 10 33 8 33
-2z m-337 -158 c-7 -2 -21 -2 -30 0 -10 3 -4 5 12 5 17 0 24 -2 18 -5z m-238
-63 c8 -13 -14 -42 -25 -35 -5 3 -8 14 -7 25 1 21 21 27 32 10z m152 -185 c18
-19 20 -18 -37 -34 -71 -20 -94 -22 -110 -12 -21 14 -7 23 21 13 17 -7 32 -4
53 9 16 10 33 16 38 13 4 -3 8 2 8 10 0 20 7 20 27 1z m-172 -15 c3 -5 -3 -10
-14 -10 -11 0 -23 5 -26 10 -3 6 3 10 14 10 11 0 23 -4 26 -10z m-20 -150 c14
0 25 -7 28 -20 4 -16 14 -20 43 -20 36 0 37 1 18 16 -18 15 -18 15 0 10 10 -4
24 -2 31 4 15 12 95 2 95 -12 0 -17 -44 -47 -67 -48 -13 0 -23 -4 -23 -9 0
-11 -57 5 -77 22 -9 7 -13 5 -13 -6 0 -21 -19 -32 -33 -18 -6 6 -20 11 -30 11
-10 0 -21 9 -24 20 -3 11 -9 20 -14 20 -14 0 -11 28 4 33 6 3 18 4 25 1 8 -2
24 -4 37 -4z m25 -336 c0 -2 -7 -4 -15 -4 -8 0 -15 4 -15 10 0 5 7 7 15 4 8
-4 15 -8 15 -10z m-602 -451 c11 -16 63 -71 116 -123 84 -83 94 -95 76 -102
-22 -8 -26 -23 -8 -34 6 -4 17 1 24 11 13 18 14 18 36 -1 93 -79 348 -332 348
-345 0 -5 7 -12 15 -15 18 -7 39 -43 31 -51 -3 -3 -34 24 -68 61 -182 196
-248 254 -248 218 0 -4 50 -59 111 -122 154 -158 169 -175 169 -184 0 -4 -76
68 -168 161 -188 187 -278 273 -288 273 -3 0 -33 -27 -65 -60 -32 -33 -64 -60
-71 -59 -10 0 -10 2 0 6 6 2 12 11 12 19 0 14 -12 18 -38 15 -10 -2 -12 4 -7
19 5 16 2 23 -14 27 -12 3 -21 13 -21 24 0 10 -4 20 -9 23 -15 10 -91 125 -91
138 0 6 15 -8 33 -32 39 -54 119 -140 130 -140 4 0 7 7 7 15 0 8 -3 15 -8 15
-7 0 -79 88 -120 149 -36 52 -4 67 38 17 46 -54 90 -96 99 -96 29 0 15 28 -48
97 -39 42 -71 82 -71 88 0 18 42 34 62 24 9 -5 25 -21 36 -36z m1612 18 c-12
-23 -30 -36 -30 -22 0 10 27 41 36 41 3 0 0 -9 -6 -19z m-56 -81 c-10 -22 -25
-40 -32 -40 -21 0 -37 -47 -22 -65 11 -14 10 -20 -11 -40 -13 -13 -39 -40 -57
-59 -35 -38 -52 -45 -52 -21 0 8 -7 15 -15 15 -20 0 -19 -27 0 -37 13 -8 11
-15 -12 -45 -16 -20 -59 -62 -97 -95 -37 -32 -86 -75 -108 -95 -22 -21 -46
-38 -53 -38 -8 0 -15 -3 -17 -8 -1 -4 -16 -18 -33 -31 -16 -12 -56 -47 -88
-78 -33 -30 -61 -52 -64 -50 -2 3 4 13 14 22 10 8 49 44 86 78 38 34 75 66 83
70 18 10 18 27 0 27 -16 0 -55 -19 -76 -38 -8 -7 -42 -37 -75 -67 -65 -59 -75
-64 -75 -37 0 9 23 35 50 57 28 22 50 43 50 46 0 4 20 20 45 36 45 28 59 53
30 53 -32 0 -12 28 57 80 39 30 98 81 131 113 55 53 62 57 93 51 35 -6 43 3
22 24 -15 15 4 32 38 32 15 0 21 6 20 17 0 12 7 19 22 21 13 2 27 14 32 28 5
13 15 24 22 24 7 0 33 22 58 49 25 26 47 47 49 45 2 -2 -4 -22 -15 -44z
m-1643 -245 c0 6 4 0 9 -12 5 -13 16 -23 24 -23 7 0 17 -11 20 -25 4 -15 11
-23 17 -19 7 4 10 -1 7 -12 -2 -10 -12 -20 -22 -22 -14 -3 -17 0 -13 12 4 10
1 16 -8 16 -7 0 -17 9 -20 20 -3 11 -10 20 -15 20 -5 0 -12 10 -16 23 -3 12
-15 36 -26 52 -18 27 -17 27 11 -5 17 -19 31 -30 32 -25z m1579 14 c0 -6 -4
-7 -10 -4 -5 3 -10 11 -10 16 0 6 5 7 10 4 6 -3 10 -11 10 -16z m-1328 -23
c17 -12 17 -14 -2 -36 -11 -13 -26 -20 -35 -16 -25 9 -29 36 -9 51 23 18 25
18 46 1z m1291 -33 c-5 -12 -7 -12 -14 -1 -13 20 -11 28 5 22 8 -3 12 -12 9
-21z m-1243 -16 c0 -23 -34 -47 -50 -36 -13 8 -11 13 9 29 27 23 41 25 41 7z
m-110 -12 c6 -8 9 -19 5 -24 -9 -15 -44 9 -38 26 7 17 18 17 33 -2z m1310 -22
c0 -7 -7 -13 -15 -13 -15 0 -21 31 -8 43 8 8 23 -12 23 -30z m52 -5 c-7 -7
-12 -8 -12 -2 0 14 12 26 19 19 2 -3 -1 -11 -7 -17z m-82 -13 c10 -12 -7 -33
-99 -125 -60 -60 -114 -110 -118 -110 -5 0 -14 9 -21 21 -12 18 -10 23 13 45
14 13 29 24 33 24 12 0 138 124 145 143 8 21 30 22 47 2z m-1235 -5 c3 -6 -1
-13 -10 -16 -19 -8 -30 0 -20 15 8 14 22 14 30 1z m103 -17 c-15 -15 -30 -24
-33 -21 -9 9 27 48 44 48 11 0 7 -8 -11 -27z m2162 7 c0 -5 6 -10 14 -10 7 0
30 -13 51 -30 20 -16 46 -32 57 -36 11 -3 17 -8 15 -11 -3 -2 -29 7 -59 21
-29 13 -66 29 -83 34 -36 10 -47 42 -16 42 12 0 21 -4 21 -10z m-2370 -30 c0
-14 -14 -12 -28 2 -19 19 -14 30 8 18 11 -6 20 -15 20 -20z m1390 16 c0 -8 -4
-16 -9 -18 -5 -1 -11 -12 -13 -23 -1 -11 -12 -23 -23 -26 -13 -4 -19 -13 -18
-28 2 -12 -1 -20 -5 -17 -10 6 -82 -58 -122 -109 -26 -32 -29 -34 -44 -19 -15
14 -13 18 21 47 57 48 141 134 153 157 6 11 17 20 25 20 8 0 15 7 15 15 0 8 5
15 10 15 6 0 10 -6 10 -14z m90 -16 c0 -5 -5 -10 -11 -10 -5 0 -7 5 -4 10 3 6
8 10 11 10 2 0 4 -4 4 -10z m-1326 -24 c-3 -9 -10 -13 -16 -10 -5 3 -4 12 3
20 15 18 22 13 13 -10z m-1387 8 c-3 -3 -12 -4 -19 -1 -8 3 -5 6 6 6 11 1 17
-2 13 -5z m1258 -14 c3 -5 1 -10 -4 -10 -6 0 -11 5 -11 10 0 6 2 10 4 10 3 0
8 -4 11 -10z m1411 -25 c-9 -7 -16 -20 -16 -29 0 -9 -7 -19 -15 -22 -8 -4 -15
-12 -15 -19 0 -15 -106 -125 -121 -125 -5 0 -9 -7 -9 -15 0 -8 -7 -15 -15 -15
-25 0 -20 9 63 96 23 25 42 52 42 60 0 7 7 14 15 14 9 0 14 8 12 22 -1 17 4
24 21 26 12 2 22 10 22 17 0 9 6 12 16 8 16 -6 16 -7 0 -18z m-2729 9 c-3 -3
-12 -4 -19 -1 -8 3 -5 6 6 6 11 1 17 -2 13 -5z m-62 -24 c7 -11 -46 -40 -74
-40 -11 0 -22 -4 -25 -9 -3 -5 -17 -11 -30 -13 -17 -4 -23 -1 -19 9 3 7 13 13
23 13 11 0 22 5 25 10 3 6 15 10 25 10 11 0 25 7 32 15 15 17 34 19 43 5z
m2259 -12 c-5 -7 -22 -24 -39 -38 -16 -14 -42 -38 -56 -54 -15 -15 -32 -27
-39 -24 -11 3 44 59 104 106 32 25 41 28 30 10z m896 -13 c0 -8 -4 -15 -10
-15 -5 0 -10 7 -10 15 0 8 5 15 10 15 6 0 10 -7 10 -15z m827 -11 c-3 -3 -12
-4 -19 -1 -8 3 -5 6 6 6 11 1 17 -2 13 -5z m-837 -109 c-6 -46 -4 -64 7 -75
11 -12 15 -12 22 -2 6 10 10 10 21 -3 14 -17 8 -19 -38 -15 -19 1 -23 -3 -20
-22 2 -16 10 -23 26 -23 26 -1 49 -29 32 -40 -6 -4 -8 -15 -5 -26 4 -10 4 -28
0 -39 -5 -16 -9 -18 -25 -7 -15 8 -22 9 -31 0 -17 -17 -2 -33 29 -33 57 2 165
-11 184 -21 15 -8 17 -13 8 -24 -9 -11 -7 -16 9 -24 25 -14 51 -14 51 -1 0 6
-10 15 -22 20 -21 8 -21 9 7 8 17 0 41 -4 55 -8 l25 -8 -27 -1 c-16 -1 -28 -3
-28 -5 0 -19 16 -36 34 -36 36 0 66 -12 66 -25 0 -10 -10 -11 -42 -4 -26 6
-45 6 -51 0 -14 -14 1 -31 26 -31 25 0 54 -16 46 -25 -4 -3 -18 0 -33 6 -14 7
-29 9 -32 6 -4 -3 -8 -52 -9 -109 -4 -123 -3 -118 -12 -118 -5 0 -6 50 -5 111
4 118 0 129 -43 129 -18 0 -20 -8 -23 -93 -5 -133 -6 -140 -19 -145 -10 -3
-13 20 -13 93 0 73 -3 96 -12 92 -9 -2 -13 -30 -14 -86 -1 -46 -6 -87 -11 -92
-4 -4 -18 -6 -31 -3 -21 6 -22 11 -22 125 0 94 -3 119 -14 119 -9 0 -15 -24
-20 -89 -3 -48 -4 -95 0 -104 8 -23 -14 -61 -30 -48 -31 26 -35 -3 -37 -282
-1 -153 -6 -280 -10 -283 -5 -3 -9 122 -9 276 0 297 -3 321 -44 298 -11 -6
-21 -6 -30 1 -7 6 -55 12 -107 15 -52 2 -100 5 -106 5 -10 1 -13 31 -13 115 0
133 0 132 -97 120 -40 -5 -54 -4 -49 5 4 6 34 11 72 11 49 0 66 4 71 15 3 9 3
18 1 21 -3 2 -41 5 -86 7 -44 1 -83 5 -87 8 -3 4 29 10 72 14 77 7 108 19 97
36 -3 5 -20 10 -37 10 -31 1 -31 2 8 10 45 11 103 11 248 3 96 -5 113 0 82 26
-12 10 -19 10 -27 2 -8 -8 -16 -8 -23 -2 -7 6 -38 12 -69 14 -32 2 -59 6 -62
8 -2 3 -26 2 -54 -2 -55 -7 -60 -5 -60 22 0 20 26 22 180 18 67 -2 73 0 61 14
-11 13 -35 16 -127 16 -69 0 -114 4 -114 10 0 15 260 22 271 7 11 -15 39 6 39
29 0 26 -1 26 -97 25 -52 -1 -58 15 -8 17 20 1 40 4 46 8 5 3 17 0 25 -7 22
-18 34 0 40 62 3 30 8 65 11 79 10 49 21 -11 13 -75z m-3222 10 c2 -34 -1 -55
-7 -55 -7 0 -11 23 -11 55 0 30 3 55 8 55 4 0 8 -25 10 -55z m-159 41 c-15
-13 -49 -25 -49 -17 0 5 8 12 18 14 24 6 36 8 31 3z m88 -88 c-3 -7 -5 -2 -5
12 0 14 2 19 5 13 2 -7 2 -19 0 -25z m2233 12 c0 -5 -5 -10 -11 -10 -5 0 -7 5
-4 10 3 6 8 10 11 10 2 0 4 -4 4 -10z m70 -22 c-1 -21 -28 -51 -39 -43 -14 8
-14 28 1 43 16 16 38 15 38 0z m805 -28 c-3 -5 -13 -10 -21 -10 -8 0 -12 5 -9
10 3 6 13 10 21 10 8 0 12 -4 9 -10z m-3048 -22 c-3 -8 -6 -5 -6 6 -1 11 2 17
5 13 3 -3 4 -12 1 -19z m1286 15 c-13 -2 -33 -2 -45 0 -13 2 -3 4 22 4 25 0
35 -2 23 -4z m54 1 c-3 -3 -12 -4 -19 -1 -8 3 -5 6 6 6 11 1 17 -2 13 -5z
m927 -25 c-12 -13 -20 -16 -22 -9 -3 7 2 16 9 21 25 16 32 9 13 -12z m1106 2
c0 -4 -11 -6 -25 -3 -14 2 -25 6 -25 8 0 2 11 4 25 4 14 0 25 -4 25 -9z m60
-11 c0 -5 -4 -10 -10 -10 -5 0 -10 5 -10 10 0 6 5 10 10 10 6 0 10 -4 10 -10z
m-2080 -31 c41 -6 87 -10 103 -10 26 0 38 -14 17 -21 -15 -5 -239 9 -256 16
-25 9 -5 26 29 26 18 -1 66 -6 107 -11z m180 -24 c0 -8 -6 -15 -14 -15 -17 0
-28 14 -19 24 12 12 33 6 33 -9z m1826 5 c18 -7 24 -14 17 -21 -13 -13 -67 7
-58 21 8 12 8 12 41 0z m65 -23 c-1 -12 -15 -9 -19 4 -3 6 1 10 8 8 6 -3 11
-8 11 -12z m-2046 -17 c17 -4 41 -3 54 2 18 6 27 4 37 -9 13 -17 15 -17 24 -1
14 23 40 12 40 -17 0 -26 -22 -39 -39 -22 -9 9 -16 8 -31 -1 -12 -7 -20 -8
-20 -2 0 6 -41 10 -104 10 -57 0 -111 3 -120 6 -16 6 -22 35 -9 47 7 8 122 -1
168 -13z m-1239 -5 c-22 -17 -46 -20 -46 -6 0 11 18 19 45 20 20 0 20 0 1 -14z
m-199 -17 c-3 -8 -6 -5 -6 6 -1 11 2 17 5 13 3 -3 4 -12 1 -19z m3431 9 c23
-15 13 -37 -17 -37 -33 0 -46 13 -37 35 5 15 31 16 54 2z m-3313 -17 c-3 -5
-15 -10 -25 -10 -10 0 -23 -7 -28 -16 -8 -14 -10 -14 -21 0 -11 13 -8 16 16
21 15 4 33 8 38 10 19 7 26 5 20 -5z m3369 4 c9 -3 16 -13 16 -21 0 -20 -34
-12 -38 10 -4 19 -1 20 22 11z m86 -36 c0 -19 -2 -20 -10 -8 -13 19 -13 30 0
30 6 0 10 -10 10 -22z m-3560 -3 c-10 -12 -38 -15 -144 -13 l-131 1 117 6 c64
4 120 10 124 14 4 4 16 7 27 7 16 0 17 -3 7 -15z m4605 -5 c3 -5 -1 -10 -9
-10 -8 0 -18 5 -21 10 -3 6 1 10 9 10 8 0 18 -4 21 -10z m-4485 -19 c0 -4 -6
-13 -12 -19 -10 -10 -10 -15 0 -21 8 -5 12 -19 10 -32 -2 -19 -9 -24 -30 -24
-16 -1 -33 -6 -39 -12 -6 -6 -18 -9 -25 -6 -8 3 -20 0 -28 -6 -7 -6 -69 -13
-145 -15 -115 -4 -132 -2 -127 11 3 8 6 19 6 24 0 5 54 9 120 9 73 0 120 4
120 10 0 6 -33 10 -77 11 -143 2 -163 4 -165 14 -2 6 41 11 112 13 63 1 122 5
130 9 8 3 19 5 24 4 4 -1 19 5 32 14 13 8 32 15 44 15 11 0 20 4 20 10 0 5 7
7 15 4 8 -4 15 -9 15 -13z m80 10 c0 -8 -52 -23 -59 -16 -1 2 0 8 4 14 8 13
55 15 55 2z m50 -1 c0 -5 -4 -10 -10 -10 -5 0 -10 5 -10 10 0 6 5 10 10 10 6
0 10 -4 10 -10z m1340 -5 c14 -2 29 -4 33 -4 5 -1 7 -9 6 -18 -3 -37 1 -43 31
-41 30 2 43 18 15 18 -8 0 -15 5 -15 10 0 21 44 0 46 -22 1 -7 2 -19 3 -25 0
-7 10 -13 20 -13 10 0 21 -6 24 -14 8 -21 -3 -26 -24 -13 -10 6 -21 8 -25 5
-12 -12 5 -38 25 -38 18 0 19 -8 19 -115 -1 -64 -4 -118 -9 -120 -13 -9 -22
103 -12 154 11 54 7 71 -13 71 -11 0 -14 -16 -14 -65 0 -37 -4 -65 -10 -65 -5
0 -10 5 -10 10 0 6 -7 10 -15 10 -10 0 -15 16 -17 63 -2 47 -7 62 -18 62 -12
0 -14 -14 -12 -75 8 -178 9 -165 -16 -166 -13 -1 -27 -5 -32 -10 -6 -7 -19
-288 -20 -441 0 -13 -5 -23 -11 -23 -7 0 -9 69 -4 234 7 230 7 233 -13 238
-12 3 -23 1 -26 -6 -3 -8 -7 -8 -13 1 -10 14 -74 27 -180 38 l-62 7 -3 111 -3
112 -30 3 c-49 6 -54 22 -6 22 35 0 42 3 39 18 -3 15 -17 17 -113 19 -61 1
-121 -2 -135 -7 -14 -5 -95 -16 -180 -25 -85 -8 -174 -18 -197 -22 -72 -10
-49 13 30 31 94 22 433 54 585 56 13 0 22 6 22 15 0 11 -12 15 -42 16 -24 0
-65 4 -93 9 -46 7 416 2 475 -5z m-635 -11 c-193 -25 -287 -35 -292 -30 -3 2
15 7 39 10 23 4 86 12 138 20 52 8 122 14 155 14 54 0 49 -2 -40 -14z m3791
-2 c-5 -8 -76 -4 -76 4 0 2 18 4 41 4 22 0 38 -4 35 -8z m-4551 -47 c0 -13 -8
-21 -22 -23 -17 -3 -23 2 -23 16 0 10 3 22 7 26 13 13 38 1 38 -19z m4419 10
c20 -9 34 -20 31 -25 -4 -6 -18 -4 -35 5 -16 8 -38 15 -49 15 -11 0 -23 5 -26
10 -9 15 38 12 79 -5z m-1954 -16 c-43 -12 -58 -10 -37 5 10 8 28 11 40 8 22
-6 22 -6 -3 -13z m80 11 c0 -5 -2 -10 -4 -10 -3 0 -8 5 -11 10 -3 6 -1 10 4
10 6 0 11 -4 11 -10z m-980 -4 c0 -11 -19 -15 -25 -6 -3 5 1 10 9 10 9 0 16
-2 16 -4z m361 -16 c6 0 7 -5 4 -10 -4 -6 -11 -8 -17 -4 -6 4 -8 -3 -6 -17 2
-19 11 -25 38 -30 l35 -6 -36 -2 c-20 0 -39 -4 -43 -8 -4 -4 -22 -6 -41 -4
-41 3 -56 -4 -48 -24 7 -19 73 -21 74 -2 0 10 2 10 6 0 2 -7 23 -14 46 -15
l42 -1 -37 -4 -38 -4 0 -52 c1 -29 5 -72 10 -97 8 -44 6 -60 -6 -47 -3 3 -11
48 -17 99 l-12 93 -30 0 c-28 0 -30 -3 -30 -35 0 -19 4 -65 7 -102 6 -54 4
-68 -6 -68 -10 0 -16 24 -22 88 -8 92 -10 104 -13 112 -3 6 -4 62 -2 108 1 25
5 32 20 32 23 0 37 -16 19 -22 -19 -7 1 -28 27 -28 29 0 43 19 24 31 -12 8
-12 11 1 19 8 5 21 8 28 5 8 -3 18 -5 23 -5z m94 0 c-3 -5 -11 -10 -16 -10 -6
0 -7 5 -4 10 3 6 11 10 16 10 6 0 7 -4 4 -10z m261 -18 c-9 -9 -37 8 -31 18 5
8 11 7 21 -1 8 -6 12 -14 10 -17z m2262 11 c2 -9 -8 -13 -32 -13 -34 0 -52 11
-39 24 11 11 66 2 71 -11z m-126 -17 c19 -4 26 -12 25 -26 -2 -23 -3 -24 -48
-9 -41 14 -65 39 -47 50 6 4 18 3 27 -1 9 -5 28 -11 43 -14z m-2772 4 c0 -5
-6 -10 -14 -10 -8 0 -18 5 -21 10 -3 6 3 10 14 10 12 0 21 -4 21 -10z m113
-63 c-2 -39 2 -112 8 -161 9 -72 9 -90 -2 -97 -23 -14 -28 -11 -38 29 -14 50
-30 230 -24 267 4 25 10 31 31 33 l27 2 -2 -73z m367 44 c0 -9 -14 -13 -92
-27 -30 -5 -38 -3 -38 9 0 19 7 21 75 25 31 2 55 -1 55 -7z m-2202 -13 c13
-16 7 -111 -12 -203 -14 -68 -19 -62 -18 20 0 17 -4 5 -10 -25 -30 -163 -36
-185 -48 -182 -7 2 -20 0 -29 -4 -9 -4 -35 -6 -57 -5 -23 1 -70 -3 -104 -9
-51 -9 -65 -9 -71 2 -5 8 -3 15 6 18 9 3 11 10 6 19 -5 7 -14 10 -20 7 -6 -4
-11 -4 -12 1 0 4 -2 22 -4 38 -3 17 -7 62 -9 100 -3 39 -5 73 -5 78 -1 4 -11
7 -23 8 l-23 0 23 16 c26 18 29 43 5 43 -14 0 -13 3 5 16 17 11 53 17 130 19
63 2 126 10 152 19 25 9 55 16 68 16 12 0 22 5 22 10 0 14 15 13 28 -2z m921
3 c15 -10 -24 -16 -164 -26 -44 -3 -129 -13 -189 -21 -60 -8 -111 -12 -113
-10 -17 17 142 41 324 49 34 2 66 6 69 10 10 10 56 8 73 -2z m815 -42 c-5 -9
-54 1 -54 11 0 5 3 15 6 24 5 14 9 13 29 -6 13 -12 22 -25 19 -29z m776 41 c0
-5 -9 -10 -20 -10 -11 0 -20 5 -20 10 0 6 9 10 20 10 11 0 20 -4 20 -10z
m2100 -10 c0 -23 -7 -28 -35 -22 -16 3 -25 11 -25 23 0 15 6 19 30 17 20 -1
30 -8 30 -18z m-4541 1 c19 -12 -4 -24 -30 -16 -17 6 -19 9 -8 16 17 11 21 11
38 0z m200 -7 c2 -2 -9 -4 -26 -4 -16 0 -33 -3 -36 -7 -13 -12 16 -33 46 -33
35 0 29 -10 -15 -25 -42 -13 -48 -35 -11 -35 l28 -1 -27 -15 c-22 -12 -28 -22
-28 -49 0 -26 -4 -35 -16 -35 -12 0 -15 7 -12 31 4 28 -6 43 -36 49 -18 4 -24
-25 -25 -129 -2 -108 -9 -133 -33 -113 -9 7 -19 7 -28 2 -37 -24 -43 -13 -36
61 3 39 9 76 12 81 12 18 24 -8 25 -54 2 -52 14 -83 23 -58 3 8 7 62 9 120 l4
105 44 0 c32 0 44 4 44 15 0 9 -11 16 -27 18 -16 2 -28 -1 -28 -7 0 -17 -17
-13 -24 5 -8 20 14 50 24 34 4 -7 18 -8 34 -4 20 5 27 12 25 28 0 11 -1 24 0
28 1 6 82 -1 90 -8z m2114 -1 c-7 -2 -21 -2 -30 0 -10 3 -4 5 12 5 17 0 24 -2
18 -5z m1477 -3 c19 -12 -27 -13 -85 -1 l-40 9 55 1 c30 0 62 -4 70 -9z m456
-4 c83 -7 162 -20 175 -27 13 -8 41 -14 61 -14 21 -1 41 -4 45 -8 4 -4 1 -56
-7 -115 -8 -59 -14 -117 -14 -129 -1 -13 -4 -23 -7 -23 -4 0 -9 -18 -12 -41
-7 -50 -10 -53 -42 -45 -30 8 -32 36 -10 141 17 81 18 95 7 95 -9 0 -31 -99
-34 -153 -1 -21 -6 -40 -10 -43 -4 -3 -5 -11 -1 -19 3 -11 -2 -15 -18 -15 -48
0 -51 10 -50 134 l2 116 -33 1 c-18 1 -46 4 -63 6 -41 5 -85 6 -115 4 -14 -1
-52 0 -85 2 -33 2 -97 5 -143 5 -50 1 -81 6 -77 12 6 10 381 5 466 -6 31 -3
49 -2 54 6 4 6 5 13 3 16 -8 7 -144 20 -323 30 -49 2 -95 6 -102 9 -7 2 -15 0
-17 -4 -10 -16 -246 6 -264 24 -12 12 32 14 128 7 58 -5 157 -8 220 -6 63 1
168 -2 234 -7 65 -6 121 -7 124 -4 11 10 -14 25 -49 30 -88 10 -151 15 -232
17 -48 1 -90 4 -92 8 -7 12 133 10 281 -4z m-403 -3 c-7 -2 -19 -2 -25 0 -7 3
-2 5 12 5 14 0 19 -2 13 -5z m-1774 -34 c-8 -5 -27 -8 -44 -8 l-30 1 35 12
c36 14 62 10 39 -5z m65 7 c-3 -8 -13 -12 -25 -9 -16 5 -18 8 -7 14 20 13 38
11 32 -5z m-2137 -12 c7 -18 -17 -38 -31 -24 -11 11 -1 40 14 40 6 0 13 -7 17
-16z m-547 -39 c0 -2 -18 -14 -40 -25 -22 -11 -40 -16 -40 -10 0 5 15 16 33
24 35 16 47 19 47 11z m540 -35 c0 -5 -4 -10 -10 -10 -5 0 -10 5 -10 10 0 6 5
10 10 10 6 0 10 -4 10 -10z m3807 -2 c-5 -15 -66 -13 -81 2 -7 7 7 10 38 10
34 0 46 -4 43 -12z m-4337 -17 c0 -5 -18 -18 -40 -30 -39 -20 -40 -20 -40 -2
0 12 11 23 28 29 35 13 52 14 52 3z m-10 -71 c0 -5 -6 -10 -14 -10 -8 0 -22
-7 -30 -16 -14 -14 -16 -14 -16 0 0 16 26 35 48 36 6 0 12 -4 12 -10z m2050
-16 c0 -16 -16 -19 -25 -4 -8 13 4 32 16 25 5 -4 9 -13 9 -21z m-1384 -21
c-11 -11 -19 6 -11 24 8 17 8 17 12 0 3 -10 2 -21 -1 -24z m1529 7 c3 -5 -1
-10 -9 -10 -9 0 -16 5 -16 10 0 6 4 10 9 10 6 0 13 -4 16 -10z m-1748 -77 c-3
-10 -5 -2 -5 17 0 19 2 27 5 18 2 -10 2 -26 0 -35z m223 37 c0 -5 -4 -10 -10
-10 -5 0 -10 5 -10 10 0 6 5 10 10 10 6 0 10 -4 10 -10z m0 -61 c0 -5 -4 -9
-10 -9 -5 0 -10 7 -10 16 0 8 5 12 10 9 6 -3 10 -10 10 -16z m4462 -43 l32
-41 -47 45 c-26 25 -47 49 -47 54 0 13 27 -12 62 -58z m-4682 30 c0 -3 -4 -8
-10 -11 -5 -3 -10 -1 -10 4 0 6 5 11 10 11 6 0 10 -2 10 -4z m4686 -119 c29
-53 9 -47 -39 13 -29 35 -45 64 -41 71 8 13 53 -34 80 -84z m-3289 11 c-2 -13
-4 -3 -4 22 0 25 2 35 4 23 2 -13 2 -33 0 -45z m120 10 c-3 -7 -5 -2 -5 12 0
14 2 19 5 13 2 -7 2 -19 0 -25z m0 -75 c-3 -10 -5 -2 -5 17 0 19 2 27 5 18 2
-10 2 -26 0 -35z m3113 17 c0 -15 -5 -12 -26 11 -19 22 -19 22 4 10 12 -6 22
-16 22 -21z m205 -40 c-3 -5 -12 -10 -18 -10 -7 0 -6 4 3 10 19 12 23 12 15 0z
m-3318 -32 c-3 -7 -5 -2 -5 12 0 14 2 19 5 13 2 -7 2 -19 0 -25z m-117 -45 c0
-20 -3 -24 -11 -16 -7 7 -9 19 -6 27 10 24 17 19 17 -11z m3418 -10 c-19 -19
-31 -24 -38 -17 -18 18 -1 40 33 42 l32 3 -27 -28z m6 -51 c8 -13 -7 -29 -26
-29 -21 0 -23 8 -6 25 14 14 25 15 32 4z m-1607 -24 c-3 -8 -6 -5 -6 6 -1 11
2 17 5 13 3 -3 4 -12 1 -19z m1433 18 c0 -2 -7 -9 -15 -16 -13 -11 -14 -10 -9
4 5 14 24 23 24 12z m-5524 -25 c5 -5 32 -22 59 -37 28 -15 68 -38 90 -51 22
-12 51 -27 63 -33 13 -6 34 -17 45 -26 21 -15 21 -15 -8 -8 -16 4 -42 15 -57
26 -15 10 -43 25 -62 33 -43 18 -142 80 -151 95 -8 12 8 13 21 1z m5544 -72
c-19 -34 -43 -60 -72 -75 -16 -8 -28 -12 -28 -9 0 8 73 75 83 75 4 0 7 7 7 15
0 8 5 15 10 15 7 0 7 -7 0 -21z"/>
<path d="M3432 4690 c-7 -11 -8 -20 -3 -20 9 0 24 30 18 36 -1 2 -8 -6 -15
-16z"/>
<path d="M3350 4661 c0 -6 5 -13 10 -16 6 -3 10 1 10 9 0 9 -4 16 -10 16 -5 0
-10 -4 -10 -9z"/>
<path d="M2847 4603 c-4 -3 -7 -11 -7 -17 0 -6 5 -5 12 2 6 6 9 14 7 17 -3 3
-9 2 -12 -2z"/>
<path d="M3035 4580 c3 -5 10 -10 16 -10 5 0 9 5 9 10 0 6 -7 10 -16 10 -8 0
-12 -4 -9 -10z"/>
<path d="M2888 4563 c7 -3 16 -2 19 1 4 3 -2 6 -13 5 -11 0 -14 -3 -6 -6z"/>
<path d="M2780 4470 c0 -5 5 -10 10 -10 6 0 10 5 10 10 0 6 -4 10 -10 10 -5 0
-10 -4 -10 -10z"/>
<path d="M2955 4470 c4 -6 12 -10 19 -10 8 0 19 -7 26 -15 7 -8 17 -15 22 -15
6 0 6 6 -1 14 -14 17 -75 40 -66 26z"/>
<path d="M3110 4455 c0 -5 5 -17 10 -25 5 -8 10 -10 10 -5 0 6 -5 17 -10 25
-5 8 -10 11 -10 5z"/>
<path d="M3080 4425 c0 -8 5 -15 10 -15 6 0 10 7 10 15 0 8 -4 15 -10 15 -5 0
-10 -7 -10 -15z"/>
<path d="M3210 4430 c0 -15 20 -22 46 -16 35 9 29 22 -11 23 -19 1 -35 -3 -35
-7z"/>
<path d="M2900 4410 c0 -5 5 -10 10 -10 6 0 10 5 10 10 0 6 -4 10 -10 10 -5 0
-10 -4 -10 -10z"/>
<path d="M3034 4375 c-19 -14 -19 -14 2 -15 12 0 27 7 34 15 17 20 -9 21 -36
0z"/>
<path d="M2920 4286 c0 -2 11 -6 25 -8 13 -3 22 -1 19 3 -5 9 -44 13 -44 5z"/>
<path d="M3144 4264 c3 -9 6 -18 6 -20 0 -2 7 -4 15 -4 18 0 19 12 3 28 -17
17 -31 15 -24 -4z"/>
<path d="M2611 3604 c0 -11 3 -14 6 -6 3 7 2 16 -1 19 -3 4 -6 -2 -5 -13z"/>
<path d="M2465 3570 c-3 -5 1 -10 10 -10 9 0 13 5 10 10 -3 6 -8 10 -10 10 -2
0 -7 -4 -10 -10z"/>
<path d="M2628 3413 c7 -3 16 -2 19 1 4 3 -2 6 -13 5 -11 0 -14 -3 -6 -6z"/>
<path d="M2615 3390 c-3 -5 1 -10 10 -10 9 0 13 5 10 10 -3 6 -8 10 -10 10 -2
0 -7 -4 -10 -10z"/>
<path d="M3080 3573 c0 -13 5 -23 10 -23 13 0 13 11 0 30 -8 12 -10 11 -10 -7z"/>
<path d="M2460 1830 c0 -11 7 -20 15 -20 8 0 15 9 15 20 0 11 -7 20 -15 20 -8
0 -15 -9 -15 -20z"/>
<path d="M2512 1797 c-13 -15 1 -42 17 -33 13 9 15 33 2 40 -5 3 -13 0 -19 -7z"/>
<path d="M2655 1731 c-6 -11 9 -23 19 -14 9 9 7 23 -3 23 -6 0 -12 -4 -16 -9z"/>
<path d="M2450 1721 c0 -6 5 -13 10 -16 6 -3 10 1 10 9 0 9 -4 16 -10 16 -5 0
-10 -4 -10 -9z"/>
<path d="M2690 1693 c0 -15 33 -41 45 -36 11 4 12 9 2 24 -11 18 -47 27 -47
12z"/>
<path d="M3872 1848 c-16 -16 -15 -38 1 -38 17 0 37 20 37 37 0 16 -22 17 -38
1z"/>
<path d="M3827 1785 c6 -17 25 -15 31 3 2 7 -5 12 -17 12 -14 0 -19 -5 -14
-15z"/>
<path d="M4176 1171 c-3 -5 1 -11 9 -15 15 -6 29 7 18 18 -9 9 -21 8 -27 -3z"/>
<path d="M4246 1161 c-3 -5 0 -11 8 -14 15 -6 26 1 26 15 0 11 -27 10 -34 -1z"/>
<path d="M4304 1029 c-8 -14 11 -33 25 -25 11 7 4 36 -9 36 -5 0 -12 -5 -16
-11z"/>
<path d="M4405 1010 c-3 -5 -1 -10 4 -10 6 0 11 5 11 10 0 6 -2 10 -4 10 -3 0
-8 -4 -11 -10z"/>
<path d="M4305 960 c-7 -12 2 -30 16 -30 12 0 12 27 0 35 -5 3 -12 1 -16 -5z"/>
<path d="M4400 946 c0 -8 5 -18 10 -21 6 -3 10 3 10 14 0 12 -4 21 -10 21 -5
0 -10 -6 -10 -14z"/>
<path d="M4458 944 c-14 -14 6 -34 34 -34 23 0 29 4 26 18 -3 17 -47 29 -60
16z"/>
<path d="M3968 913 c6 -2 18 -2 25 0 6 3 1 5 -13 5 -14 0 -19 -2 -12 -5z"/>
<path d="M4395 890 c-8 -13 4 -32 16 -25 12 8 12 35 0 35 -6 0 -13 -4 -16 -10z"/>
<path d="M1030 1010 c-12 -8 -11 -10 8 -10 12 0 22 5 22 10 0 13 -11 13 -30 0z"/>
<path d="M978 1002 c-10 -2 -18 -10 -18 -18 0 -16 9 -18 29 -5 18 12 10 28
-11 23z"/>
<path d="M2550 1020 c0 -5 5 -10 11 -10 5 0 7 5 4 10 -3 6 -8 10 -11 10 -2 0
-4 -4 -4 -10z"/>
<path d="M2586 952 c-2 -4 -1 -14 4 -22 7 -11 12 -12 21 -3 6 6 8 16 5 22 -8
13 -23 14 -30 3z"/>
<path d="M2551 884 c0 -11 3 -14 6 -6 3 7 2 16 -1 19 -3 4 -6 -2 -5 -13z"/>
<path d="M981 564 c0 -11 3 -14 6 -6 3 7 2 16 -1 19 -3 4 -6 -2 -5 -13z"/>
<path d="M5592 838 c6 -18 28 -21 28 -4 0 9 -7 16 -16 16 -9 0 -14 -5 -12 -12z"/>
<path d="M5590 765 c0 -9 5 -15 11 -13 6 2 11 8 11 13 0 5 -5 11 -11 13 -6 2
-11 -4 -11 -13z"/>
</g>
</svg>
